<svg width="240" height="240" viewBox="0 0 240 240" xmlns="http://www.w3.org/2000/svg">
  <defs>
    <radialGradient id="bg" cx="50%" cy="34%" r="80%">
      <stop offset="0%"  stop-color="#1d222b"/>
      <stop offset="100%" stop-color="#13151a"/>
    </radialGradient>
    <linearGradient id="funnel" x1="0" y1="0" x2="0" y2="1">
      <stop offset="0%"  stop-color="#7cc4ff"/>
      <stop offset="100%" stop-color="#3f87d6"/>
    </linearGradient>
    <linearGradient id="digest" x1="0" y1="0" x2="0" y2="1">
      <stop offset="0%"  stop-color="#1e2630"/>
      <stop offset="100%" stop-color="#171c24"/>
    </linearGradient>
  </defs>

  <rect x="0" y="0" width="240" height="240" rx="52" fill="url(#bg)"/>
  <rect x="1.5" y="1.5" width="237" height="237" rx="50.5"
        fill="none" stroke="#2a2f38" stroke-width="2"/>

  <!-- many papers in (broad scope) -->
  <g transform="rotate(-13 76 64)">
    <rect x="50" y="34" width="52" height="62" rx="6" fill="#262c36" stroke="#39414d" stroke-width="1.5"/>
    <g stroke="#5b6675" stroke-width="2.4" stroke-linecap="round">
      <line x1="58" y1="48" x2="92" y2="48"/>
      <line x1="58" y1="58" x2="92" y2="58"/>
      <line x1="58" y1="68" x2="84" y2="68"/>
    </g>
  </g>
  <g transform="rotate(13 164 64)">
    <rect x="138" y="34" width="52" height="62" rx="6" fill="#262c36" stroke="#39414d" stroke-width="1.5"/>
    <g stroke="#5b6675" stroke-width="2.4" stroke-linecap="round">
      <line x1="146" y1="48" x2="180" y2="48"/>
      <line x1="146" y1="58" x2="180" y2="58"/>
      <line x1="146" y1="68" x2="172" y2="68"/>
    </g>
  </g>
  <g>
    <rect x="94" y="26" width="52" height="64" rx="6" fill="#2e3540" stroke="#454e5b" stroke-width="1.5"/>
    <g stroke="#6f7b8b" stroke-width="2.6" stroke-linecap="round">
      <line x1="103" y1="41" x2="137" y2="41"/>
      <line x1="103" y1="52" x2="137" y2="52"/>
      <line x1="103" y1="63" x2="129" y2="63"/>
    </g>
  </g>

  <!-- funnel (the tool distilling) -->
  <path d="M 58 108 L 182 108 L 138 158 L 138 184 L 102 184 L 102 158 Z"
        fill="url(#funnel)" stroke="#9fd4ff" stroke-width="1.5" stroke-linejoin="round"/>
  <path d="M 58 108 L 182 108 L 168 122 L 72 122 Z" fill="#ffffff" opacity="0.14"/>

  <!-- distilled drop -->
  <circle cx="120" cy="196" r="5" fill="#7fdb9e"/>

  <!-- one clean digest out -->
  <rect x="78" y="196" width="84" height="26" rx="8" fill="url(#digest)" stroke="#3a4450" stroke-width="1.5"/>
  <g stroke="#7fdb9e" stroke-width="2.6" stroke-linecap="round">
    <line x1="90" y1="206" x2="150" y2="206"/>
    <line x1="90" y1="213" x2="134" y2="213"/>
  </g>

  <!-- sparkle: the AI summary -->
  <path d="M 178 150 l 3 8 8 3 -8 3 -3 8 -3 -8 -8 -3 8 -3 z" fill="#ffd27c"/>
  <circle cx="166" cy="170" r="2.2" fill="#ffd27c" opacity="0.8"/>
</svg>
